<svg fill="#000000" xmlns="http://www.w3.org/2000/svg"  viewBox="0 0 24 24" width="24px" height="24px">
<path d="M 12 2 C 6.472656 2 2 6.472656 2 12 C 2 17.527344 6.472656 22 12 22 C 17.523438 22 22 17.527344 22 12 C 22 6.472656 17.523438 2 12 2 Z M 16.367188 11.527344 L 12 17.261719 L 7.632813 11.527344 C 7.367188 11.210938 7.265625 10.789063 7.265625 10.367188 C 7.265625 9.210938 8.160156 8.316406 9.265625 8.316406 C 10.632813 8.316406 10.949219 9.683594 12 9.683594 C 13.054688 9.683594 13.367188 8.316406 14.789063 8.316406 C 15.84375 8.316406 16.738281 9.210938 16.738281 10.367188 C 16.734375 10.789063 16.578125 11.210938 16.367188 11.527344 Z"/>
</svg>